<?xml version="1.0" encoding="utf-8"?>
<!-- Generator: Adobe Illustrator 27.3.1, SVG Export Plug-In . SVG Version: 6.00 Build 0)  -->
<svg version="1.1" id="Layer_1" xmlns="http://www.w3.org/2000/svg" xmlns:xlink="http://www.w3.org/1999/xlink" x="0px" y="0px"
	 viewBox="0 0 1280 296" style="enable-background:new 0 0 1280 296;" xml:space="preserve">
<style type="text/css">
	.st0{fill:#FFFFFF;}
	.st1{fill:#089949;}
</style>
<g>
	<g>
		<path d="M329.3,140.8H405v17.3h-53.4V192h42.5v16.9h-42.5v46.8h-22.3V140.8z"/>
		<path d="M429.9,136.1c6.5,0,11.7,4.8,11.7,11.5c0,6.6-5,11.4-11.6,11.4c-6.5,0-12-4.9-12-11.5C418,140.8,423.4,136.1,429.9,136.1z
			 M419.8,171.8h20.1v83.9h-20.1V171.8z"/>
		<path d="M462.7,171.6h20.1V185c5.4-10.4,16.7-15.1,28.4-15.1c20.2,0,29.3,14.2,29.3,33.3v52.6H520v-50.6
			c0-11.8-5.3-18.7-17.2-18.7c-12.6,0-20.1,7.8-20.1,19.9v49.4h-20.1V171.6z"/>
		<path d="M609.7,245.4c-6.4,8.5-15.7,11.8-26.1,11.8c-15.8,0-28.2-8-28.2-24.5c0-23.3,24.6-27,44.2-27h9.9v-1.3
			c0-12-2.8-19.6-16.4-19.6c-8.2,0-15.7,4.2-18.7,12l-15.6-6.7c5.6-14.8,21.3-20.2,36.3-20.2c19.9,0,34.3,9.6,34.3,30.9v54.9h-19.8
			V245.4z M599.4,218.1c-9.3,0-24,1.1-24,13.8c0,8.1,5.9,11.1,13.4,11.1c10.2,0,20.7-5.3,20.7-16.7v-8.2H599.4z"/>
		<path d="M650.7,171.6h20.1V185c5.4-10.4,16.7-15.1,28.4-15.1c20.2,0,29.3,14.2,29.3,33.3v52.6h-20.4v-50.6
			c0-11.8-5.3-18.7-17.2-18.7c-12.6,0-20.1,7.8-20.1,19.9v49.4h-20.1V171.6z"/>
		<path d="M825.4,231.9c-5.6,17.6-21.3,25.3-38.8,25.3c-26.7,0-42.6-17.9-42.6-43.9c0-25,17.8-43.6,43.1-43.6
			c17,0,31.7,7.1,37.9,23.6l-16.2,7.1c-3.4-9.4-11.5-14.8-21.7-14.8c-16.4,0-22.4,14.2-22.4,28.6c0,14.8,6.5,27.6,22.8,27.6
			c11.5,0,19.3-6.4,22.8-16.9L825.4,231.9z"/>
		<path d="M916.4,237.4c-7,14.8-22.1,19.9-37.5,19.9c-26.5,0-43.2-17.7-43.2-43.9c0-24.6,17-43.6,42.3-43.6
			c27.2,0,40.4,15.9,40.4,48.3h-62.2c0,14.2,8.2,24.6,23.5,24.6c9.1,0,16.6-3.7,21-12.2L916.4,237.4z M898.4,204.9
			c-0.6-12.7-8.3-20.5-20.2-20.5c-12.6,0-20,8.9-21.7,20.5H898.4z"/>
		<path d="M970.6,140.8h39.9c24.2,0,43.1,9.7,43.1,36.2c0,29.1-23,35.4-47.6,35.4h-13.2v43.3h-22.3V140.8z M1010.4,196.4
			c13.7,0,21.5-5.7,21.5-19.5c0-14.4-8.5-19.1-21.5-19.1h-17.5v38.7H1010.4z"/>
		<path d="M1069.2,137.6l20.1-8.7v126.8h-20.1V137.6z"/>
		<path d="M1168.2,242.5c-5.3,10.2-16.1,14.8-27.7,14.8c-19.3,0-29.5-12.7-29.5-31.8v-53.8h20.1V223c0,11.5,5.3,18.5,17,18.5
			c12.6,0,20.2-8.1,20.2-20.1v-49.8h20v84h-20V242.5z"/>
		<path d="M1219.1,230.6c3.1,8.2,11.7,12.2,20.8,12.2c6.5,0,14.6-2,14.6-10c0-8.4-9.1-10.4-19.5-12.6c-13.5-2.8-28.6-6.1-28.6-25
			c0-17.3,16.1-25.5,31.3-25.5c13.3,0,28.6,5,34.1,18.3l-14.9,6.4c-3.3-7.5-11.5-10.3-18.4-10.3c-6.7,0-13.1,2.7-13.1,9.5
			c0,7.7,8.2,9.3,18.4,11.3c13.7,2.7,30.1,5.8,30.1,25.4c0,19.8-16.6,26.8-34.1,26.8c-14.8,0-30.8-5-36-20.1L1219.1,230.6z"/>
	</g>
	<g>
		<path d="M329.5,104.4l37-53.4h-33.2V40.5h50.6v5.2l-36.1,53.4h35v10.5h-53.3V104.4z"/>
		<path d="M415.5,58c15.4,0,27.2,10.8,27.2,26.3c0,15.9-12.4,26.4-27.7,26.4c-15.4,0-27.8-10.7-27.8-26.1
			C387.2,68.6,400.3,58,415.5,58z M429.7,84.3c0-9.3-4.7-17.1-14.7-17.1c-10.2,0-14.3,8.1-14.3,17.4c0,9,4.8,16.6,14.6,16.6
			C425.5,101.3,429.7,93.2,429.7,84.3z"/>
		<path d="M451.6,36.1h12.1v31c3.3-6.3,9.9-9.1,16.9-9.1c12.1,0,18.2,8.5,18.2,20v31.7h-12.2V79.2c0-7.3-3.8-11.3-10.8-11.3
			c-7.8,0-12.1,4.8-12.1,12v29.7h-12.1V36.1z"/>
		<path d="M534.9,58c15.4,0,27.2,10.8,27.2,26.3c0,15.9-12.4,26.4-27.7,26.4c-15.4,0-27.8-10.7-27.8-26.1
			C506.6,68.6,519.7,58,534.9,58z M549.1,84.3c0-9.3-4.7-17.1-14.7-17.1c-10.2,0-14.3,8.1-14.3,17.4c0,9,4.8,16.6,14.6,16.6
			C544.8,101.3,549.1,93.2,549.1,84.3z"/>
	</g>
</g>
<path class="st1" d="M262.1,73.4L141.4,3.8c-1.8-1-3.9-1-5.7,0L15.1,73.4c-1.8,1-2.8,2.9-2.8,4.9l0,139.3c0,2,1.1,3.9,2.8,4.9
	l120.6,69.7c0.9,0.5,1.9,0.8,2.8,0.8c1,0,2-0.3,2.8-0.8L262,222.6c1.8-1,2.8-2.9,2.8-4.9l0-139.3C264.9,76.3,263.8,74.4,262.1,73.4z
	 M138.6,15.2l109.3,63.1l-61.1,35.3l-45.5-26.2c-1.8-1-3.9-1-5.7,0l-45.4,26.2L29.3,78.3L138.6,15.2z M23.6,88.2L87.5,125
	c0,0,0,0,0,0l45.4,26.2v126.3L23.6,214.4L23.6,88.2z M225.9,230.4l0-78.8l1.6,1.9c1.1,1.3,2.7,2,4.3,2c1.3,0,2.6-0.4,3.7-1.3
	c2.4-2,2.7-5.6,0.7-8L224.9,133c-0.3-0.4-0.6-0.8-0.9-1.1c-2.3-2.1-5.9-1.9-8,0.4L203.5,146c-2.1,2.3-1.9,5.9,0.4,8
	c1.1,1,2.4,1.5,3.8,1.5c1.5,0,3.1-0.6,4.2-1.9l2.6-2.9l0,86.2l-28.8,16.6l0-32.5l1.5,1.8c1.1,1.3,2.7,2,4.3,2c1.3,0,2.6-0.4,3.7-1.3
	c2.4-2,2.7-5.6,0.7-8l-11.1-13.1c-0.3-0.4-0.6-0.8-0.9-1.1c-2.3-2.1-5.9-1.9-8,0.4l-12.5,13.7c-2.1,2.3-1.9,5.9,0.4,8
	c1.1,1,2.4,1.5,3.8,1.5c1.5,0,3.1-0.6,4.2-1.9l2.7-2.9l-0.1,40l-30.2,17.4V148c0-0.1,0-0.1,0-0.2c0-0.1,0-0.1,0-0.2
	c-0.2-2.2-1.5-4-3.4-4.8l-39.1-22.6l36.9-21.3l37,21.3l-20,11.6c-2.7,1.6-3.6,5-2.1,7.7c1,1.8,3,2.8,4.9,2.8c1,0,1.9-0.2,2.8-0.8
	l92.4-53.4l0,126.2L225.9,230.4z"/>
</svg>
