<?xml version="1.0" encoding="utf-8"?>
<!-- Generator: Adobe Illustrator 27.3.1, SVG Export Plug-In . SVG Version: 6.00 Build 0)  -->
<svg version="1.1" id="Layer_1" xmlns="http://www.w3.org/2000/svg" xmlns:xlink="http://www.w3.org/1999/xlink" x="0px" y="0px"
	 viewBox="0 0 1208 296" style="enable-background:new 0 0 1208 296;" xml:space="preserve">
<style type="text/css">
	.st0{fill:#FFFFFF;}
	.st1{fill:#E42527;}
</style>
<g>
	<g>
		<path d="M328.9,140.8h39.9c24.2,0,43.1,9.7,43.1,36.2c0,29.1-23,35.4-47.6,35.4h-13.2v43.3h-22.3V140.8z M368.7,196.4
			c13.7,0,21.5-5.7,21.5-19.5c0-14.4-8.5-19.1-21.5-19.1h-17.5v38.7H368.7z"/>
		<path d="M498.5,237.4c-7,14.8-22.1,19.9-37.5,19.9c-26.5,0-43.2-17.7-43.2-43.9c0-24.6,17-43.6,42.3-43.6
			c27.2,0,40.4,15.9,40.4,48.3h-62.2c0,14.2,8.2,24.6,23.5,24.6c9.1,0,16.6-3.7,21-12.2L498.5,237.4z M480.5,204.9
			c-0.6-12.7-8.3-20.5-20.2-20.5c-12.6,0-20,8.9-21.7,20.5H480.5z"/>
		<path d="M555.4,169.8c25.5,0,45.1,17.9,45.1,43.6c0,26.4-20.6,43.8-46,43.8c-25.6,0-46.1-17.7-46.1-43.4
			C508.4,187.5,530.1,169.8,555.4,169.8z M578.9,213.6c0-15.5-7.8-28.3-24.3-28.3c-17,0-23.7,13.5-23.7,28.9
			c0,14.9,7.9,27.6,24.2,27.6C571.9,241.8,578.9,228.3,578.9,213.6z"/>
		<path d="M615.2,171.6h20.1v13.6c5.8-9.8,17.6-15.4,28.8-15.4c25.7,0,38.1,20.6,38.1,43.6c0,23.6-13.2,43.9-37.5,43.9
			c-11.8,0-23.7-4.7-29.3-14.8v42h-20.1V171.6z M681.4,212.9c0-14.2-7.1-27.4-23.5-27.4c-16.6,0-23.3,13.3-23.3,28.4
			c0,15.6,7.2,27.6,23.9,27.6C676.3,241.6,681.4,228.4,681.4,212.9z"/>
		<path d="M719.2,137.6l20.1-8.7v126.8h-20.1V137.6z"/>
		<path d="M837,237.4c-7,14.8-22.1,19.9-37.5,19.9c-26.5,0-43.2-17.7-43.2-43.9c0-24.6,17-43.6,42.3-43.6
			c27.2,0,40.4,15.9,40.4,48.3h-62.2c0,14.2,8.2,24.6,23.5,24.6c9.1,0,16.6-3.7,21-12.2L837,237.4z M818.9,204.9
			c-0.6-12.7-8.3-20.5-20.2-20.5c-12.6,0-20,8.9-21.7,20.5H818.9z"/>
		<path d="M891.2,140.8h39.9c24.2,0,43.1,9.7,43.1,36.2c0,29.1-23,35.4-47.6,35.4h-13.2v43.3h-22.3V140.8z M931,196.4
			c13.7,0,21.5-5.7,21.5-19.5c0-14.4-8.5-19.1-21.5-19.1h-17.5v38.7H931z"/>
		<path d="M989.7,137.6l20.1-8.7v126.8h-20.1V137.6z"/>
		<path d="M1088.8,242.5c-5.3,10.2-16.1,14.8-27.7,14.8c-19.3,0-29.5-12.7-29.5-31.8v-53.8h20.1V223c0,11.5,5.3,18.5,17,18.5
			c12.6,0,20.2-8.1,20.2-20.1v-49.8h20v84h-20V242.5z"/>
		<path d="M1139.7,230.6c3.1,8.2,11.7,12.2,20.8,12.2c6.5,0,14.6-2,14.6-10c0-8.4-9.1-10.4-19.5-12.6c-13.5-2.8-28.6-6.1-28.6-25
			c0-17.3,16.1-25.5,31.3-25.5c13.3,0,28.6,5,34.1,18.3l-14.9,6.4c-3.3-7.5-11.5-10.3-18.4-10.3c-6.7,0-13.1,2.7-13.1,9.5
			c0,7.7,8.2,9.3,18.4,11.3c13.7,2.7,30.1,5.8,30.1,25.4c0,19.8-16.6,26.8-34.1,26.8c-14.8,0-30.8-5-36-20.1L1139.7,230.6z"/>
	</g>
	<g>
		<path d="M329.1,104.4l37-53.4h-33.2V40.5h50.6v5.2l-36.1,53.4h35v10.5h-53.3V104.4z"/>
		<path d="M415.1,58c15.4,0,27.2,10.8,27.2,26.3c0,15.9-12.4,26.4-27.7,26.4c-15.4,0-27.8-10.7-27.8-26.1
			C386.8,68.6,399.9,58,415.1,58z M429.3,84.3c0-9.3-4.7-17.1-14.7-17.1c-10.2,0-14.3,8.1-14.3,17.4c0,9,4.8,16.6,14.6,16.6
			C425.1,101.3,429.3,93.2,429.3,84.3z"/>
		<path d="M451.1,36.1h12.1v31c3.3-6.3,9.9-9.1,16.9-9.1c12.1,0,18.2,8.5,18.2,20v31.7h-12.2V79.2c0-7.3-3.8-11.3-10.8-11.3
			c-7.8,0-12.1,4.8-12.1,12v29.7h-12.1V36.1z"/>
		<path d="M534.5,58c15.4,0,27.2,10.8,27.2,26.3c0,15.9-12.4,26.4-27.7,26.4c-15.4,0-27.8-10.7-27.8-26.1
			C506.2,68.6,519.3,58,534.5,58z M548.7,84.3c0-9.3-4.7-17.1-14.7-17.1c-10.2,0-14.3,8.1-14.3,17.4c0,9,4.8,16.6,14.6,16.6
			C544.4,101.3,548.7,93.2,548.7,84.3z"/>
	</g>
</g>
<g>
	<path class="st1" d="M264.5,217.6l0-139.3c0-2-1.1-3.9-2.8-4.9L141,3.8c-1.5-0.9-3.7-1.1-5.7,0L14.7,73.4c-1.8,1-2.8,2.9-2.8,4.9
		l0,139.3c0.1,1.7,0.7,3.6,2.8,4.9l120.6,69.6c1.8,1,3.9,1,5.7,0l120.7-69.7C263.4,221.5,264.5,219.7,264.5,217.6z M132.5,18.5
		l0,70.2l-45.7,26.4c-1.8,1-2.8,2.9-2.8,4.9l0,52.6l-60.8,35.3l0-126.2L132.5,18.5z M95.3,166l0-42.8l37.2-21.5l0,42.7L95.3,166z
		 M138.1,280.8l-34.5-19.9c6-7.9,14.5-13.5,24.2-15.9c11.1-2.8,22.7-1.1,32.6,4.6c5,2.9,9.3,6.6,12.7,11.1L138.1,280.8z M183,254.9
		c-4.5-6.1-10.3-11.3-16.9-15.2c-12.5-7.2-27-9.2-41-5.8c-12.7,3.2-23.8,10.7-31.4,21.2l-64.9-37.5l109.1-63.3l96.9,56
		c2.7,1.6,6.2,0.6,7.7-2.1c1.6-2.7,0.6-6.2-2.1-7.7l-96.6-55.8l0-126.3l109.3,63.1l0,132.8L183,254.9z"/>
	<path class="st1" d="M148.2,183.6c-9.5-5.5-21.6-2.2-27.1,7.3s-2.2,21.6,7.3,27.1s21.6,2.2,27.1-7.3
		C160.9,201.2,157.7,189.1,148.2,183.6z M134.1,208.1c-4.1-2.3-5.5-7.5-3.1-11.6c2.3-4.1,7.5-5.5,11.6-3.1c4.1,2.3,5.5,7.5,3.1,11.6
		C143.3,209.1,138.1,210.5,134.1,208.1z"/>
</g>
</svg>
